<?xml version="1.0" standalone="no"?>
<!DOCTYPE svg PUBLIC "-//W3C//DTD SVG 20010904//EN"
 "http://www.w3.org/TR/2001/REC-SVG-20010904/DTD/svg10.dtd">
<svg version="1.0" xmlns="http://www.w3.org/2000/svg"
 width="1200.000000pt" height="1200.000000pt" viewBox="0 0 1200.000000 1200.000000"
 preserveAspectRatio="xMidYMid meet">

<g transform="translate(0.000000,1200.000000) scale(0.100000,-0.100000)"
fill="#000000" stroke="none">
<path d="M5690 10240 c-797 -82 -1520 -433 -2064 -1001 -478 -498 -781 -1115
-886 -1804 -28 -177 -39 -602 -21 -782 80 -794 415 -1494 982 -2049 530 -518
1190 -832 1934 -920 188 -22 543 -22 730 1 744 88 1397 398 1929 915 564 548
908 1263 986 2049 15 153 12 490 -5 658 -66 625 -311 1218 -712 1718 -101 127
-329 359 -453 462 -400 332 -892 576 -1390 686 -242 54 -376 69 -670 72 -151
2 -313 0 -360 -5z m-1235 -1132 c21 -9 25 -18 25 -53 0 -41 2 -43 48 -63 77
-33 159 -45 282 -43 310 8 280 11 450 -48 97 -34 166 -63 186 -80 16 -15 43
-32 60 -39 16 -7 39 -30 52 -52 12 -22 27 -40 32 -40 6 0 10 -10 10 -22 0 -13
26 -86 57 -163 l58 -140 0 -110 c0 -162 -44 -296 -144 -443 -42 -62 -34 -57
-382 -252 l-47 -25 83 -44 c46 -24 122 -73 170 -109 86 -64 217 -204 236 -252
6 -13 14 -27 18 -30 12 -8 58 -166 80 -275 44 -218 53 -449 26 -722 -24 -255
-29 -272 -100 -379 -35 -52 -69 -111 -76 -132 -7 -20 -30 -63 -53 -96 -34 -51
-49 -63 -110 -91 -123 -56 -284 -103 -511 -150 -209 -43 -221 -46 -243 -75
-29 -37 -46 -37 -113 -4 -79 40 -97 30 -124 -73 -23 -89 -37 -113 -67 -113
-50 0 -67 30 -83 143 -3 27 -12 50 -20 53 -7 3 -30 -2 -51 -11 -36 -15 -40
-14 -79 4 -22 11 -53 23 -68 26 -22 4 -28 11 -25 28 2 18 10 22 38 23 19 1 64
15 100 32 l66 30 18 336 c12 232 20 611 26 1219 8 800 7 923 -10 1327 -11 245
-20 475 -20 511 l0 65 -60 -4 c-85 -6 -109 2 -126 44 -8 20 -14 37 -12 38 2 1
29 7 60 13 32 7 78 21 103 32 l45 20 0 64 c0 63 1 65 38 90 67 47 110 56 157
35z m3093 -55 c40 -30 38 -53 -8 -112 -23 -29 -48 -68 -56 -88 -8 -19 -26 -45
-39 -56 -19 -17 -41 -79 -100 -282 -90 -306 -193 -633 -240 -760 -64 -176 -62
-156 -74 -640 -6 -247 -14 -558 -17 -690 -4 -132 -3 -378 1 -547 l7 -306 95
-4 c86 -3 97 -5 114 -27 26 -32 21 -41 -35 -70 -44 -23 -63 -25 -249 -32 -170
-6 -218 -11 -302 -33 -157 -41 -244 -33 -264 26 -15 44 0 65 74 98 l63 28 8
58 c4 32 4 279 0 549 -7 426 -5 500 8 565 14 65 14 101 5 265 -6 104 -9 237
-6 294 6 96 4 109 -19 165 -14 33 -63 169 -109 301 -201 580 -378 1066 -399
1097 -10 15 -37 28 -73 38 -67 17 -91 48 -73 94 15 40 51 45 265 35 77 -3 100
0 160 21 66 24 79 25 250 22 105 -2 185 -8 192 -14 17 -14 16 -73 -1 -87 -7
-6 -43 -14 -79 -18 l-65 -6 14 -61 c27 -117 116 -442 171 -621 52 -173 178
-574 189 -605 8 -22 57 79 83 170 11 41 75 237 141 435 171 508 180 544 180
681 0 106 1 114 23 129 31 23 128 16 165 -12z"/>
<path d="M4792 8816 c-62 -7 -114 -15 -116 -17 -2 -2 -11 -60 -20 -127 -19
-151 -21 -401 -4 -800 l12 -294 55 7 c134 17 315 87 390 151 52 45 108 158
127 255 31 163 29 379 -8 695 l-11 101 -51 16 c-72 22 -241 28 -374 13z"/>
<path d="M4677 7463 c-3 -5 -11 -225 -17 -490 -12 -460 -9 -1285 6 -1529 l7
-102 53 19 c29 10 117 30 196 45 222 40 302 67 360 121 23 22 27 36 33 102 4
42 15 121 25 176 35 193 40 405 19 790 -26 480 -82 673 -222 769 -60 40 -124
58 -292 80 -66 9 -130 19 -142 21 -12 3 -24 2 -26 -2z"/>
<path d="M8010 2698 c-10 -17 -21 -58 -24 -92 -20 -233 -28 -342 -37 -496 -5
-96 -14 -222 -19 -280 -5 -58 -9 -142 -10 -187 0 -71 3 -84 19 -93 33 -17 78
-11 107 13 32 28 42 78 44 222 1 55 7 125 13 155 l12 55 115 0 115 0 -1 -70
c0 -38 -2 -110 -5 -160 l-4 -90 38 -18 c43 -22 81 -17 97 13 25 47 70 652 70
957 0 58 -17 83 -56 83 -34 0 -81 -26 -88 -47 -3 -10 -8 -90 -11 -178 -6 -168
-19 -273 -38 -299 -23 -32 -171 -39 -217 -11 -10 6 -12 36 -6 139 3 72 11 160
16 196 5 36 10 93 10 127 0 76 -14 93 -76 93 -39 0 -47 -4 -64 -32z"/>
<path d="M4715 2685 c-46 -16 -63 -36 -69 -79 -3 -17 -10 -186 -15 -376 -6
-190 -18 -398 -25 -463 -19 -156 -9 -187 62 -187 43 0 78 24 91 63 7 17 16 88
22 157 6 68 15 132 20 141 11 21 74 51 97 47 24 -5 71 -79 159 -251 66 -131
80 -151 109 -163 20 -8 46 -12 62 -8 89 21 95 68 23 194 -26 47 -78 137 -115
201 -36 64 -66 126 -66 138 0 13 14 29 38 45 90 57 127 135 120 255 -5 93 -37
157 -96 196 -49 33 -169 74 -262 91 -93 17 -105 17 -155 -1z m262 -199 c66
-23 109 -114 81 -173 -8 -17 -50 -52 -108 -91 -95 -62 -135 -81 -148 -67 -4 4
-7 78 -7 164 0 192 2 196 87 187 32 -4 75 -13 95 -20z"/>
<path d="M8719 2667 c-33 -22 -34 -25 -41 -107 -20 -236 -39 -537 -45 -708 -5
-172 -4 -193 11 -218 16 -23 23 -26 59 -21 24 3 50 15 65 31 26 25 26 27 33
258 8 244 22 461 39 613 5 50 7 105 4 123 -11 56 -66 69 -125 29z"/>
<path d="M3448 2669 c-37 -14 -60 -54 -111 -199 -25 -69 -77 -210 -117 -315
-88 -229 -170 -469 -170 -495 0 -41 84 -66 123 -37 19 14 64 112 96 208 l22
67 57 10 c31 6 80 14 109 18 64 8 67 3 89 -138 9 -57 25 -123 35 -147 19 -43
20 -44 60 -38 22 3 49 13 60 23 30 27 35 -8 -76 549 -39 195 -50 264 -71 432
-8 63 -44 84 -106 62z m16 -427 c8 -37 16 -89 18 -117 2 -49 2 -50 -32 -62
-19 -7 -50 -12 -69 -12 l-34 -1 7 40 c8 51 55 201 68 217 17 21 26 7 42 -65z"/>
<path d="M5758 2669 c-37 -14 -60 -54 -111 -199 -25 -69 -77 -210 -117 -315
-87 -228 -170 -469 -170 -495 0 -41 84 -66 123 -37 19 14 64 112 96 208 l22
67 57 10 c31 6 80 14 109 18 64 8 67 3 88 -133 19 -121 40 -180 66 -188 26 -9
69 2 92 22 28 26 32 -7 -78 548 -39 195 -50 264 -71 432 -8 63 -44 84 -106 62z
m16 -427 c8 -37 16 -89 18 -117 2 -49 2 -50 -32 -62 -19 -7 -50 -12 -69 -12
l-34 -1 7 40 c8 51 55 201 68 217 17 21 26 7 42 -65z"/>
<path d="M6585 2671 c-28 -12 -62 -51 -75 -86 -10 -27 -5 -41 59 -170 39 -77
98 -194 133 -259 l63 -120 0 -95 c0 -53 -4 -144 -9 -202 l-9 -107 26 -26 c31
-31 67 -28 104 8 23 22 24 30 51 337 9 94 10 98 67 190 63 103 113 171 216
295 113 136 129 174 89 214 -29 29 -74 26 -100 -7 -40 -53 -187 -258 -237
-333 -28 -42 -58 -82 -68 -90 -15 -13 -19 -12 -35 7 -9 12 -30 52 -45 90 -26
61 -154 345 -158 350 -8 8 -56 10 -72 4z"/>
<path d="M7550 2667 c-34 -17 -65 -66 -91 -145 -12 -37 -58 -161 -102 -277
-114 -300 -197 -542 -197 -574 0 -61 89 -85 129 -35 16 20 72 152 104 246 6
17 61 31 168 44 56 6 56 6 67 -24 5 -16 18 -77 27 -135 10 -59 26 -120 36
-137 25 -40 67 -41 111 -1 l32 28 -27 129 c-69 339 -127 650 -140 753 -11 87
-19 118 -33 128 -22 16 -52 16 -84 0z m9 -378 c6 -17 16 -69 22 -116 11 -79
11 -87 -6 -99 -23 -17 -104 -29 -116 -17 -16 16 59 263 80 263 5 0 14 -14 20
-31z"/>
<path d="M9313 2665 c-38 -16 -62 -60 -109 -195 -18 -52 -66 -183 -107 -290
-99 -258 -177 -486 -177 -515 0 -48 89 -75 122 -37 23 26 62 107 93 194 l27
77 52 10 c28 6 77 13 108 17 56 6 58 5 68 -21 6 -15 17 -69 25 -120 16 -96 31
-151 48 -172 26 -34 127 7 127 50 0 14 -31 181 -69 373 -62 310 -77 396 -97
562 -6 46 -33 82 -61 82 -10 -1 -32 -7 -50 -15z m22 -431 c8 -38 15 -90 15
-116 0 -46 -1 -47 -37 -57 -21 -6 -50 -11 -65 -11 -23 0 -28 4 -28 24 0 34 48
196 67 225 20 32 30 18 48 -65z"/>
<path d="M3895 2617 c-39 -39 -42 -54 -50 -337 -3 -107 -12 -267 -20 -355 -20
-224 -20 -252 6 -265 37 -20 158 -23 238 -6 89 19 205 75 266 128 76 67 144
238 145 364 0 144 -75 309 -176 384 -48 35 -143 73 -248 100 -107 27 -122 26
-161 -13z m253 -188 c119 -59 177 -163 170 -304 -9 -182 -127 -315 -279 -315
-50 0 -57 3 -63 23 -7 28 24 574 35 605 12 32 62 29 137 -9z"/>
<path d="M2600 2609 c-67 -13 -93 -37 -107 -100 -7 -30 -25 -224 -40 -432
l-27 -377 20 -21 c57 -56 260 -49 398 14 149 68 214 229 150 367 -31 68 -45
84 -111 126 -29 19 -53 38 -53 44 0 6 17 29 39 53 78 85 101 126 101 177 0 43
-4 51 -44 88 -71 65 -191 88 -326 61z m180 -154 c41 -37 17 -91 -65 -148 -67
-47 -85 -48 -86 -4 -2 69 3 131 12 155 9 23 13 24 64 20 34 -3 62 -12 75 -23z
m-69 -350 c85 -30 149 -104 149 -173 0 -65 -99 -132 -197 -132 -65 0 -68 6
-58 159 11 170 16 177 106 146z"/>
</g>
</svg>
